<svg width="220" height="220" viewBox="0 0 220 220" fill="none" xmlns="http://www.w3.org/2000/svg">
<rect width="220" height="220" rx="24" fill="#1578C9"/>
<g clip-path="url(#clip0_218_1262)">
<path d="M32.9782 110.003C32.4319 109.346 32.0407 108.575 31.8337 107.746C31.6266 106.917 31.609 106.052 31.7822 105.215C32.5899 103.028 35.1909 101.303 37.9864 99.4625C38.6756 99.0078 39.3741 98.5444 40.0659 98.0664C43.1447 95.9179 46.1997 93.2757 47.8239 90.6506C50.3658 86.558 50.9683 81.0036 50.6544 76.2564C50.2293 70.8256 56.1438 69.9607 60.7188 69.2923C61.5721 69.1649 62.3855 69.047 63.0969 68.9097C66.1914 68.2945 69.919 67.4586 73.7717 66.3658C74.0167 65.4524 74.4855 64.6145 75.1359 63.928C75.7862 63.2414 76.5975 62.7279 77.4963 62.4339C78.3951 62.14 79.3531 62.0748 80.2834 62.2443C81.2138 62.4138 82.0871 62.8126 82.8245 63.4047C85.4476 62.5064 87.9539 61.6619 90.3506 60.8679C90.4397 59.7377 90.8646 58.66 91.5707 57.773C92.2768 56.8861 93.2319 56.2304 94.3134 55.8903C95.3949 55.5502 96.5533 55.541 97.64 55.8641C98.7267 56.1872 99.692 56.8277 100.412 57.7035C110.168 54.8081 117.836 53.1665 124.207 52.9369C129.611 52.7502 134.304 53.55 138.648 55.5603C142.927 57.5469 146.493 60.5307 149.89 64.1191C154.489 68.9819 153.509 76.3792 148.777 80.3117L74.4332 142.098C72.1135 144.026 69.123 144.954 66.1195 144.676C63.1161 144.399 60.3457 142.941 58.4178 140.621L54.7832 136.248L85.3956 110.806C86.544 109.839 87.2632 108.456 87.3962 106.961C87.5291 105.465 87.0651 103.977 86.1053 102.823C85.1455 101.668 83.768 100.939 82.2732 100.797C80.7784 100.654 79.2877 101.108 78.1265 102.06L47.5142 127.501L32.9782 110.003Z" fill="white"/>
<rect x="161.125" y="77.9214" width="15" height="76.5758" rx="6" transform="rotate(49.4582 161.125 77.9214)" fill="white"/>
<path d="M141.701 121.806L153.046 111.994L193.011 158.201L187.716 162.78C184.374 165.671 179.322 165.305 176.432 161.963L141.701 121.806Z" fill="white"/>
<rect x="22.9448" y="157.133" width="174.695" height="10" fill="white"/>
</g>
<defs>
<clipPath id="clip0_218_1262">
<rect width="177.64" height="150" fill="white" transform="translate(21 35)"/>
</clipPath>
</defs>
</svg>
