<svg width="68" height="76" viewBox="0 0 68 76" fill="none" xmlns="http://www.w3.org/2000/svg">
<path fill-rule="evenodd" clip-rule="evenodd" d="M11.3145 22.6128C11.3145 16.6454 13.685 10.9225 17.9046 6.70289C22.1241 2.48332 27.8471 0.112793 33.8145 0.112793C39.7818 0.112793 45.5048 2.48332 49.7244 6.70289C53.9439 10.9225 56.3145 16.6454 56.3145 22.6128H60.0645C62.0536 22.6128 63.9612 23.403 65.3678 24.8095C66.7743 26.216 67.5645 28.1237 67.5645 30.1128V67.6128C67.5645 69.6019 66.7743 71.5096 65.3678 72.9161C63.9612 74.3226 62.0536 75.1128 60.0645 75.1128H7.56445C5.57533 75.1128 3.66767 74.3226 2.26115 72.9161C0.854629 71.5096 0.0644531 69.6019 0.0644531 67.6128V30.1128C0.0644531 28.1237 0.854629 26.216 2.26115 24.8095C3.66767 23.403 5.57533 22.6128 7.56445 22.6128H11.3145ZM33.8145 7.61279C37.7927 7.61279 41.608 9.19314 44.4211 12.0062C47.2341 14.8192 48.8145 18.6345 48.8145 22.6128H18.8145C18.8145 18.6345 20.3948 14.8192 23.2079 12.0062C26.0209 9.19314 29.8362 7.61279 33.8145 7.61279ZM41.3145 45.1128C41.3144 46.4293 40.9679 47.7226 40.3096 48.8627C39.6513 50.0028 38.7046 50.9495 37.5645 51.6078V56.3628C37.5645 57.3574 37.1694 58.3112 36.4661 59.0144C35.7628 59.7177 34.809 60.1128 33.8145 60.1128C32.8199 60.1128 31.8661 59.7177 31.1628 59.0144C30.4595 58.3112 30.0645 57.3574 30.0645 56.3628V51.6078C28.6347 50.7822 27.5174 49.508 26.8856 47.9827C26.2539 46.4574 26.143 44.7663 26.5703 43.1716C26.9976 41.5769 27.9392 40.1678 29.249 39.1627C30.5587 38.1577 32.1635 37.6129 33.8145 37.6128C35.8036 37.6128 37.7112 38.403 39.1178 39.8095C40.5243 41.216 41.3145 43.1237 41.3145 45.1128Z" fill="#09244B"/>
</svg>
