<svg width="220" height="220" viewBox="0 0 220 220" fill="none" xmlns="http://www.w3.org/2000/svg">
<rect width="220" height="220" rx="24" fill="#FFE5B4"/>
<path d="M132.283 132.884C122.488 134.098 123.002 111.931 124.483 100.696L141.024 104.088C142.192 113.181 142.079 131.671 132.283 132.884Z" fill="url(#paint0_linear_183_1294)"/>
<path d="M69.9566 42.6208C50.5048 45.2132 36.5932 59.2859 40.8366 74.5223C44.8417 82.8638 45.4572 80.6418 55.1761 87.1907C70.1929 97.3095 62.0953 104.431 72.3193 115.333C83.8784 127.659 83.8624 142.384 88.5941 142.977C93.3259 143.571 101.311 136.157 99.2406 125.482C97.1704 114.807 98.0576 107.69 101.311 102.649C106.177 98.8443 131.261 103.543 141.353 109.933C149.881 115.333 150.998 149.002 162.939 140.128C173.664 132.156 160.999 107.314 152.546 94.6721C158.694 98.8297 174.787 117.764 178.583 112.427C185.538 102.649 163.876 86.9871 151.546 78.2565C73.7879 65.5377 90.3933 44.1022 69.9566 42.6208Z" fill="#FFA807"/>
<path d="M147.138 167.816C147.138 181.515 136.063 192.621 122.4 192.621C108.737 192.621 97.6616 181.515 97.6616 167.816C97.6616 154.116 108.737 143.011 122.4 143.011C136.063 143.011 147.138 154.116 147.138 167.816Z" fill="#FFA807"/>
<path d="M147.138 167.816C147.138 181.515 136.063 192.621 122.4 192.621C108.737 192.621 97.6616 181.515 97.6616 167.816C97.6616 154.116 108.737 143.011 122.4 143.011C136.063 143.011 147.138 154.116 147.138 167.816Z" stroke="#FFFDFD"/>
<path d="M122.4 152.877C130.628 152.877 137.299 159.565 137.299 167.816C137.299 176.067 130.628 182.755 122.4 182.755C114.171 182.755 107.501 176.067 107.501 167.816C107.501 159.565 114.171 152.877 122.4 152.877ZM122.4 155.865C119.239 155.865 116.207 157.124 113.972 159.365C111.736 161.606 110.481 164.646 110.481 167.816C110.481 170.985 111.736 174.025 113.972 176.267C116.207 178.508 119.239 179.767 122.4 179.767C125.561 179.767 128.593 178.508 130.828 176.267C133.063 174.025 134.319 170.985 134.319 167.816C134.319 164.646 133.063 161.606 130.828 159.365C128.593 157.124 125.561 155.865 122.4 155.865ZM122.4 158.852C122.765 158.852 123.117 158.987 123.39 159.23C123.662 159.473 123.837 159.808 123.879 160.171L123.89 160.346V161.84H126.869C127.249 161.841 127.614 161.986 127.891 162.248C128.167 162.509 128.333 162.866 128.355 163.246C128.377 163.627 128.254 164.001 128.01 164.293C127.767 164.585 127.421 164.772 127.044 164.817L126.869 164.828H119.42C119.234 164.828 119.054 164.897 118.917 165.023C118.779 165.149 118.694 165.321 118.677 165.507C118.66 165.693 118.713 165.879 118.826 166.027C118.939 166.176 119.103 166.277 119.286 166.31L119.42 166.322H125.38C126.348 166.319 127.279 166.695 127.976 167.37C128.672 168.044 129.08 168.964 129.111 169.934C129.143 170.904 128.797 171.849 128.146 172.568C127.495 173.286 126.59 173.723 125.624 173.784L125.38 173.791H123.89V175.285C123.889 175.666 123.744 176.032 123.483 176.309C123.222 176.586 122.866 176.753 122.487 176.775C122.108 176.797 121.735 176.674 121.444 176.429C121.152 176.185 120.965 175.838 120.92 175.46L120.91 175.285V173.791H117.93C117.55 173.791 117.185 173.645 116.909 173.384C116.633 173.122 116.467 172.765 116.444 172.385C116.422 172.005 116.546 171.631 116.789 171.339C117.033 171.047 117.379 170.859 117.756 170.814L117.93 170.804H125.38C125.566 170.804 125.745 170.734 125.883 170.609C126.02 170.483 126.106 170.31 126.123 170.124C126.14 169.938 126.086 169.753 125.974 169.604C125.861 169.456 125.697 169.355 125.514 169.322L125.38 169.31H119.42C118.452 169.312 117.521 168.936 116.824 168.262C116.127 167.588 115.72 166.668 115.688 165.697C115.657 164.727 116.003 163.782 116.654 163.064C117.305 162.345 118.209 161.909 119.176 161.848L119.42 161.84H120.91V160.346C120.91 159.95 121.067 159.57 121.346 159.29C121.626 159.01 122.005 158.852 122.4 158.852Z" fill="white"/>
<defs>
<linearGradient id="paint0_linear_183_1294" x1="133.18" y1="129.896" x2="139.727" y2="100.685" gradientUnits="userSpaceOnUse">
<stop stop-color="#FFA807"/>
<stop offset="1" stop-color="#D88C00"/>
</linearGradient>
</defs>
</svg>
