<svg width="220" height="220" viewBox="0 0 220 220" fill="none" xmlns="http://www.w3.org/2000/svg">
<rect width="220" height="220" rx="24" fill="#FFA807"/>
<path d="M132.532 132.884C122.71 134.098 123.225 111.931 124.711 100.696L141.296 104.088C142.467 113.181 142.354 131.671 132.532 132.884Z" fill="white"/>
<path d="M70.0372 42.6208C50.5329 45.2132 36.5838 59.2859 40.8387 74.5223C44.8546 82.8638 45.4718 80.6418 55.2168 87.1907C70.2741 97.3095 62.1547 104.431 72.4063 115.333C83.9966 127.659 83.9805 142.384 88.725 142.977C93.4695 143.571 101.476 136.157 99.4001 125.482C97.3244 114.807 98.214 107.69 101.476 102.649C106.355 98.8443 131.507 103.543 141.626 109.933C150.177 115.333 151.297 149.002 163.27 140.128C174.024 132.156 161.326 107.314 152.849 94.6721C159.014 98.8297 175.151 117.764 178.957 112.427C185.93 102.649 164.21 86.9871 151.847 78.2565C73.8788 65.5377 90.529 44.1022 70.0372 42.6208Z" fill="white"/>
<circle cx="122.622" cy="167.816" r="24.8051" fill="white"/>
<circle cx="122.622" cy="167.816" r="24.8051" stroke="#FFFDFD"/>
<path d="M122.622 152.877C130.872 152.877 137.561 159.565 137.561 167.816C137.561 176.067 130.872 182.755 122.622 182.755C114.371 182.755 107.683 176.067 107.683 167.816C107.683 159.565 114.371 152.877 122.622 152.877ZM122.622 155.865C119.452 155.865 116.412 157.124 114.171 159.365C111.93 161.606 110.67 164.646 110.67 167.816C110.67 170.985 111.93 174.025 114.171 176.267C116.412 178.508 119.452 179.767 122.622 179.767C125.791 179.767 128.831 178.508 131.072 176.267C133.314 174.025 134.573 170.985 134.573 167.816C134.573 164.646 133.314 161.606 131.072 159.365C128.831 157.124 125.791 155.865 122.622 155.865ZM122.622 158.852C122.988 158.852 123.341 158.987 123.614 159.23C123.888 159.473 124.062 159.808 124.105 160.171L124.116 160.346V161.84H127.103C127.484 161.841 127.85 161.986 128.127 162.248C128.404 162.509 128.571 162.866 128.593 163.246C128.615 163.627 128.492 164.001 128.247 164.293C128.003 164.585 127.656 164.773 127.278 164.817L127.103 164.828H119.634C119.447 164.828 119.267 164.897 119.129 165.023C118.991 165.149 118.905 165.321 118.889 165.507C118.872 165.693 118.925 165.879 119.038 166.027C119.151 166.176 119.316 166.277 119.499 166.31L119.634 166.322H125.609C126.58 166.319 127.514 166.695 128.212 167.37C128.911 168.044 129.319 168.964 129.351 169.934C129.383 170.904 129.036 171.849 128.383 172.568C127.73 173.286 126.823 173.723 125.854 173.784L125.609 173.791H124.116V175.285C124.115 175.666 123.969 176.032 123.708 176.309C123.447 176.586 123.089 176.753 122.709 176.775C122.329 176.797 121.955 176.674 121.663 176.429C121.371 176.185 121.183 175.838 121.138 175.46L121.128 175.285V173.791H118.14C117.759 173.791 117.393 173.645 117.116 173.384C116.839 173.122 116.673 172.765 116.65 172.385C116.628 172.005 116.752 171.631 116.996 171.339C117.24 171.047 117.587 170.859 117.965 170.814L118.14 170.804H125.609C125.796 170.804 125.976 170.734 126.114 170.609C126.252 170.483 126.338 170.31 126.355 170.124C126.372 169.938 126.318 169.753 126.205 169.604C126.092 169.456 125.928 169.355 125.744 169.322L125.609 169.31H119.634C118.663 169.312 117.729 168.936 117.031 168.262C116.332 167.588 115.924 166.668 115.892 165.697C115.86 164.727 116.207 163.782 116.86 163.064C117.513 162.345 118.42 161.909 119.389 161.848L119.634 161.84H121.128V160.346C121.128 159.95 121.285 159.57 121.565 159.29C121.845 159.01 122.225 158.852 122.622 158.852Z" fill="#FFA807"/>
</svg>
