<svg width="220" height="220" viewBox="0 0 220 220" fill="none" xmlns="http://www.w3.org/2000/svg">
<rect width="220" height="220" rx="24" fill="#A9EBFF"/>
<path d="M118.4 47.175C115.977 45.3575 113.029 44.375 110 44.375C106.971 44.375 104.023 45.3575 101.6 47.175L52.6 83.925C50.8613 85.2291 49.45 86.92 48.478 88.864C47.506 90.808 47 92.9516 47 95.125V161.625C47 165.338 48.475 168.899 51.1005 171.525C53.726 174.15 57.287 175.625 61 175.625H88.3C90.3422 175.625 92.3007 174.814 93.7447 173.37C95.1888 171.926 96 169.967 96 167.925V133.625C96 129.912 97.475 126.351 100.101 123.726C102.726 121.1 106.287 119.625 110 119.625C113.713 119.625 117.274 121.1 119.899 123.726C122.525 126.351 124 129.912 124 133.625V167.925C124 169.967 124.811 171.926 126.255 173.37C127.699 174.814 129.658 175.625 131.7 175.625H159C162.713 175.625 166.274 174.15 168.899 171.525C171.525 168.899 173 165.338 173 161.625V95.125C173 92.9516 172.494 90.808 171.522 88.864C170.55 86.92 169.139 85.2291 167.4 83.925L118.4 47.175Z" fill="#1578C9"/>
</svg>
