<svg width="220" height="220" viewBox="0 0 220 220" fill="none" xmlns="http://www.w3.org/2000/svg">
<rect width="220" height="220" rx="24" fill="#6B2EEF"/>
<path d="M86.1573 59.3875C86.6267 58.5741 87.2733 57.877 88.0491 57.3479C88.8249 56.8188 89.71 56.4713 90.6385 56.3312C93.201 56.3312 95.9698 58.3562 98.9323 60.5375C99.6635 61.075 100.407 61.6187 101.164 62.15C104.551 64.5062 108.439 66.65 111.764 67.325C116.951 68.3875 122.907 66.8937 127.682 64.7625C133.12 62.2562 136.264 68.025 138.695 72.4875C139.151 73.3187 139.582 74.1125 139.995 74.7937C141.807 77.75 144.089 81.275 146.682 84.8312C147.717 84.736 148.76 84.9004 149.715 85.3095C150.671 85.7186 151.509 86.3595 152.154 87.1743C152.8 87.9891 153.232 88.9519 153.411 89.9757C153.591 90.9994 153.512 92.0518 153.182 93.0375C155.107 95.4 156.932 97.6625 158.664 99.8312C159.863 99.4927 161.136 99.5204 162.319 99.9107C163.502 100.301 164.542 101.036 165.305 102.022C166.067 103.007 166.518 104.198 166.598 105.442C166.679 106.685 166.386 107.924 165.757 109C172.457 117.956 177.07 125.237 179.732 131.719C181.982 137.219 182.945 142.362 182.526 147.606C182.107 152.775 180.389 157.587 177.982 162.456C174.72 169.05 166.72 170.856 160.864 167.475L68.851 114.35C65.9801 112.692 63.8853 109.962 63.0273 106.76C62.1693 103.558 62.6185 100.146 64.276 97.275L67.401 91.8625L105.289 113.737C106.723 114.553 108.422 114.768 110.015 114.336C111.608 113.903 112.965 112.859 113.79 111.429C114.615 110 114.842 108.302 114.42 106.707C113.998 105.111 112.962 103.747 111.539 102.912L73.651 81.0375L86.1573 59.3875Z" fill="white"/>
<rect x="57.2891" y="112.614" width="4.84535" height="69.044" rx="2.42268" transform="rotate(31.5327 57.2891 112.614)" fill="white"/>
<rect x="79.1279" y="127.15" width="4.84535" height="52.2662" rx="2.42268" transform="rotate(31.5327 79.1279 127.15)" fill="white"/>
<rect x="102.332" y="139.462" width="4.84535" height="37.679" rx="2.42268" transform="rotate(31.5327 102.332 139.462)" fill="white"/>
<rect x="124.956" y="152.72" width="4.84535" height="21.0816" rx="2.42268" transform="rotate(31.5327 124.956 152.72)" fill="white"/>
<rect x="147" y="164.273" width="4.84535" height="8.45247" rx="2.42268" transform="rotate(31.5327 147 164.273)" fill="white"/>
</svg>
