<svg width="220" height="220" viewBox="0 0 220 220" fill="none" xmlns="http://www.w3.org/2000/svg">
<rect width="220" height="220" rx="24" fill="#FFA9B8"/>
<path d="M87.3048 64.4828H141.285C158.687 64.4828 172.844 78.641 172.844 96.0423V164.787C172.844 175.951 163.793 185 152.63 185C141.465 185 132.415 175.951 132.415 164.787V104.912H87.3048C76.141 104.912 67.0901 95.8614 67.0901 84.6976C67.0901 73.5323 76.141 64.4828 87.3048 64.4828Z" fill="#EF2E50"/>
<path d="M85.2227 38.6875L52.9049 71.0068C45.2389 78.6713 45.2404 91.1449 52.9049 98.8122L85.2227 131.13C87.7134 133.619 90.987 134.844 94.2505 134.812L94.3677 134.818C101.322 134.818 106.96 129.181 106.96 122.225V47.5937C106.96 40.6369 101.322 35 94.3677 35L94.2534 35.0058C90.9885 34.9725 87.7134 36.1983 85.2227 38.6875Z" fill="#EF2E50"/>
<path d="M132.415 104.937H172.844V164.787C172.844 175.951 163.793 185 152.63 185C141.465 185 132.415 175.951 132.415 164.787V104.937Z" fill="#CB2C47"/>
<path d="M172.844 135.715V96.2015H132.415V104.937C163.748 104.937 172.844 135.715 172.844 135.715Z" fill="#EF2E50"/>
</svg>
