<svg width="41" height="40" viewBox="0 0 41 40" fill="none" xmlns="http://www.w3.org/2000/svg">
<g clip-path="url(#clip0_405_3036)">
<path d="M4.85289 0.994629H36.1256C37.9833 0.994629 39.4893 2.50058 39.4893 4.35827V35.631C39.4893 37.4887 37.9833 38.9946 36.1256 38.9946H4.85289C2.99521 38.9946 1.48926 37.4887 1.48926 35.631V4.35827C1.48926 2.50058 2.99521 0.994629 4.85289 0.994629Z" fill="#FFA9B8" stroke="white" stroke-width="2"/>
<path d="M16.3629 11.7188H26.1775C29.3415 11.7188 31.9155 14.293 31.9155 17.4568V29.9559C31.9155 31.9857 30.2698 33.631 28.2402 33.631C26.2102 33.631 24.5648 31.9857 24.5648 29.9559V19.0695H16.3629C14.3331 19.0695 12.6875 17.4239 12.6875 15.3942C12.6875 13.3641 14.3331 11.7188 16.3629 11.7188Z" fill="#EF2E50"/>
<path d="M15.9847 7.02885L10.1087 12.9051C8.71492 14.2986 8.71519 16.5666 10.1087 17.9606L15.9847 23.8366C16.4376 24.2891 17.0328 24.5119 17.6261 24.506L17.6474 24.5071C18.9118 24.5071 19.9369 23.4822 19.9369 22.2175V8.64816C19.9369 7.38329 18.9118 6.3584 17.6474 6.3584L17.6266 6.35945C17.033 6.3534 16.4376 6.57627 15.9847 7.02885Z" fill="#EF2E50"/>
<path d="M24.5645 19.0742H31.9152V29.956C31.9152 31.9859 30.2695 33.6311 28.2399 33.6311C26.2099 33.6311 24.5645 31.9859 24.5645 29.956V19.0742Z" fill="#CB2C47"/>
<path d="M31.9152 24.6701V17.4858H24.5645V19.0741C30.2614 19.0741 31.9152 24.6701 31.9152 24.6701Z" fill="#EF2E50"/>
</g>
<defs>
<clipPath id="clip0_405_3036">
<rect width="40" height="40" fill="white" transform="translate(0.489258 -0.00537109)"/>
</clipPath>
</defs>
</svg>
