<svg width="220" height="221" viewBox="0 0 220 221" fill="none" xmlns="http://www.w3.org/2000/svg">
<rect y="0.432098" width="220" height="220" rx="24" fill="#C4FFBE"/>
<path d="M40.8049 110.434C40.8049 99.1172 49.9769 89.9451 61.2941 89.9451H129.96C141.277 89.9451 150.449 99.1172 150.449 110.434C150.449 121.748 141.277 130.922 129.96 130.922H61.2941C49.9769 130.922 40.8049 121.748 40.8049 110.434Z" fill="#1CB20E"/>
<path d="M126.673 130.922H61.2956C49.9784 130.922 40.8063 121.748 40.8063 110.434C40.8063 99.1172 49.9784 89.9451 61.2956 89.9451H79.8452C79.8452 127.188 126.673 130.922 126.673 130.922Z" fill="#119604"/>
<path d="M147.162 149.327L174.359 122.131C180.807 115.679 180.807 105.185 174.359 98.7328L147.162 71.5394C145.067 69.4422 142.311 68.411 139.565 68.4379L139.467 68.4321C133.613 68.4321 128.868 73.1775 128.868 79.031L128.868 141.835C128.868 147.687 133.613 152.432 139.467 152.432L139.561 152.426C142.311 152.453 145.067 151.424 147.162 149.327Z" fill="#1CB20E"/>
</svg>
