<svg width="220" height="221" viewBox="0 0 220 221" fill="none" xmlns="http://www.w3.org/2000/svg">
<rect y="0.432098" width="220" height="220" rx="24" fill="#FFE5B4"/>
<g clip-path="url(#clip0_222_8194)">
<path d="M111.825 162.863C100.909 162.863 92.058 154.013 92.058 143.097C92.058 132.179 100.909 123.33 111.825 123.33C125.01 123.33 135.735 112.605 135.735 99.4209C135.735 86.2369 125.01 75.5128 111.825 75.5128C98.642 75.5128 87.9153 86.2369 87.9153 99.4209C87.9153 110.338 79.0673 119.188 68.15 119.188C57.2326 119.188 48.3833 110.338 48.3833 99.4209C48.3833 64.4382 76.8446 35.9782 111.825 35.9782C146.807 35.9782 175.27 64.4382 175.27 99.4209C175.27 134.405 146.807 162.863 111.825 162.863Z" fill="#FFA807"/>
<path d="M108.864 99.4247L80.2239 128.062C73.4319 134.857 73.4319 145.907 80.2239 152.705L108.864 181.343C111.071 183.549 113.971 184.637 116.864 184.607L116.968 184.611C123.132 184.611 128.125 179.614 128.125 173.451V107.314C128.125 101.151 123.132 96.1541 116.968 96.1541L116.865 96.1594C113.973 96.1301 111.071 97.2154 108.864 99.4247Z" fill="#FFA807"/>
<path d="M68.15 119.187C57.2326 119.187 48.3833 110.338 48.3833 99.4208C48.3833 99.3915 48.3833 99.3581 48.3833 99.3288C48.3833 99.3234 48.3833 99.3168 48.3833 99.3115C48.3833 99.2808 48.3833 99.2515 48.3833 99.2221C48.3833 99.2168 48.3833 99.2101 48.3833 99.2048C48.3833 99.1781 48.3833 99.1488 48.3833 99.1208C48.3833 99.1181 48.3833 99.1141 48.3833 99.1115C48.3833 99.0808 48.3833 99.0515 48.3846 99.0221C48.3846 99.0155 48.3846 99.0075 48.3846 99.0021C48.3846 98.9741 48.3846 98.9421 48.3846 98.9141C48.3846 98.9088 48.3846 98.9021 48.3846 98.8954C48.3846 98.8701 48.386 98.8461 48.386 98.8208C48.386 98.8128 48.386 98.8074 48.386 98.7994C48.386 98.7728 48.386 98.7448 48.3873 98.7168C48.3873 98.7088 48.3873 98.6981 48.3873 98.6888C48.3873 98.6608 48.3873 98.6368 48.3873 98.6088C48.3886 98.6008 48.3886 98.5915 48.3886 98.5848C48.3886 98.5635 48.3886 98.5435 48.3886 98.5221C48.3886 98.5101 48.39 98.4981 48.39 98.4875C48.39 98.4608 48.39 98.4395 48.3913 98.4141C48.3913 98.4008 48.3913 98.3875 48.3913 98.3741C48.3913 98.3595 48.3913 98.3421 48.3926 98.3274C48.3926 98.3048 48.3926 98.2834 48.3926 98.2608C48.394 98.2461 48.394 98.2355 48.394 98.2208C48.394 98.2048 48.394 98.1888 48.3953 98.1728C48.3953 98.1608 48.3953 98.1488 48.3953 98.1355C48.3966 98.1101 48.3966 98.0821 48.398 98.0568C48.398 98.0474 48.398 98.0394 48.398 98.0314C48.398 97.9981 48.3993 97.9608 48.4006 97.9274C48.4006 97.9248 48.4006 97.9208 48.4006 97.9195C48.4006 97.8981 48.4006 97.8794 48.402 97.8581V97.8568C48.4033 97.8154 48.4033 97.7768 48.4046 97.7355V97.7328C48.9486 77.0288 59.47 58.7781 75.3153 47.5848C111.607 48.0595 127.729 76.1888 132.994 88.3101C129.034 80.7981 121.191 75.6368 112.153 75.5141C112.151 75.5141 112.15 75.5141 112.149 75.5141C112.114 75.5141 112.079 75.5141 112.045 75.5128C112.043 75.5128 112.041 75.5128 112.038 75.5128C112.023 75.5128 112.009 75.5128 111.993 75.5128C111.991 75.5128 111.987 75.5128 111.986 75.5128C111.969 75.5128 111.953 75.5128 111.935 75.5128C111.934 75.5128 111.93 75.5128 111.929 75.5128C111.914 75.5128 111.901 75.5128 111.886 75.5128C111.882 75.5128 111.878 75.5128 111.874 75.5128C111.858 75.5128 111.841 75.5128 111.825 75.5128C98.642 75.5128 87.9153 86.2368 87.9153 99.4208C87.9153 110.338 79.0673 119.187 68.15 119.187Z" fill="#E99C0D"/>
</g>
<defs>
<clipPath id="clip0_222_8194">
<rect width="150" height="150" fill="white" transform="matrix(0 1 -1 0 185 35.4321)"/>
</clipPath>
</defs>
</svg>
