<svg width="220" height="220" viewBox="0 0 220 220" fill="none" xmlns="http://www.w3.org/2000/svg">
<rect width="220" height="220" rx="24" fill="#A9EBFF"/>
<path d="M132.695 64.4828H78.7153C61.3131 64.4828 47.1562 78.641 47.1562 96.0423V164.787C47.1562 175.951 56.2072 185 67.3704 185C78.535 185 87.5852 175.951 87.5852 164.787V104.912H132.695C143.859 104.912 152.91 95.8614 152.91 84.6976C152.91 73.5323 143.859 64.4828 132.695 64.4828Z" fill="#2E98EF"/>
<path d="M134.777 38.6875L167.095 71.0068C174.761 78.6713 174.76 91.1449 167.095 98.8122L134.777 131.13C132.287 133.619 129.013 134.844 125.75 134.812L125.632 134.818C118.678 134.818 113.04 129.181 113.04 122.225V47.5937C113.04 40.6369 118.678 35 125.632 35L125.747 35.0058C129.012 34.9725 132.287 36.1983 134.777 38.6875Z" fill="#2E98EF"/>
<path d="M87.5852 104.937H47.1562V164.787C47.1562 175.951 56.2072 185 67.3704 185C78.535 185 87.5852 175.951 87.5852 164.787V104.937Z" fill="#1578C9"/>
<path d="M47.1562 135.715V96.2015H87.5852V104.937C56.2523 104.937 47.1562 135.715 47.1562 135.715Z" fill="#2E98EF"/>
</svg>
