<svg width="41" height="40" viewBox="0 0 41 40" fill="none" xmlns="http://www.w3.org/2000/svg">
<g clip-path="url(#clip0_405_3042)">
<path d="M4.85289 0.994629H36.1256C37.9833 0.994629 39.4893 2.50058 39.4893 4.35827V35.631C39.4893 37.4887 37.9833 38.9946 36.1256 38.9946H4.85289C2.99521 38.9946 1.48926 37.4887 1.48926 35.631V4.35827C1.48926 2.50058 2.99521 0.994629 4.85289 0.994629Z" fill="#A9EBFF" stroke="white" stroke-width="2"/>
<path d="M24.616 11.7188H14.8015C11.6375 11.7188 9.06348 14.293 9.06348 17.4568V29.9559C9.06348 31.9857 10.7091 33.631 12.7388 33.631C14.7687 33.631 16.4142 31.9857 16.4142 29.9559V19.0695H24.616C26.6458 19.0695 28.2914 17.4239 28.2914 15.3942C28.2914 13.3641 26.6458 11.7188 24.616 11.7188Z" fill="#2E98EF"/>
<path d="M24.9942 7.02885L30.8702 12.9051C32.264 14.2986 32.2638 16.5666 30.8702 17.9606L24.9942 23.8366C24.5414 24.2891 23.9462 24.5119 23.3529 24.506L23.3314 24.5071C22.0671 24.5071 21.042 23.4822 21.042 22.2175V8.64816C21.042 7.38329 22.0671 6.3584 23.3314 6.3584L23.3524 6.35945C23.946 6.3534 24.5414 6.57627 24.9942 7.02885Z" fill="#2E98EF"/>
<path d="M16.4142 19.0742H9.06348V29.956C9.06348 31.9859 10.7091 33.6311 12.7388 33.6311C14.7687 33.6311 16.4142 31.9859 16.4142 29.956V19.0742Z" fill="#1578C9"/>
<path d="M9.06348 24.6701V17.4858H16.4142V19.0741C10.7173 19.0741 9.06348 24.6701 9.06348 24.6701Z" fill="#2E98EF"/>
</g>
<defs>
<clipPath id="clip0_405_3042">
<rect width="40" height="40" fill="white" transform="translate(0.489258 -0.00537109)"/>
</clipPath>
</defs>
</svg>
