<svg width="41" height="41" viewBox="0 0 41 41" fill="none" xmlns="http://www.w3.org/2000/svg">
<g clip-path="url(#clip0_405_3024)">
<path d="M5.00133 1.12207H36.2741C38.1317 1.12207 39.6377 2.62802 39.6377 4.48571V35.7584C39.6377 37.6161 38.1317 39.1221 36.2741 39.1221H5.00133C3.14365 39.1221 1.6377 37.6161 1.6377 35.7584V4.48571C1.6377 2.62802 3.14365 1.12207 5.00133 1.12207Z" fill="#1CB20E" stroke="white" stroke-width="2"/>
<path d="M30.8648 21.1059L12.1147 31.9312C11.5712 32.2452 10.8762 32.0588 10.5624 31.5154C10.4627 31.3427 10.4102 31.1467 10.4102 30.9472V9.29652C10.4102 8.66892 10.9189 8.16016 11.5465 8.16016C11.7461 8.16016 11.942 8.21267 12.1147 8.31241L30.8648 19.1378C31.4082 19.4514 31.5944 20.1465 31.2808 20.6899C31.1809 20.8627 31.0375 21.0063 30.8648 21.1059Z" fill="white"/>
</g>
<defs>
<clipPath id="clip0_405_3024">
<rect width="40" height="40" fill="white" transform="translate(0.637695 0.12207)"/>
</clipPath>
</defs>
</svg>
