<svg width="41" height="41" viewBox="0 0 41 41" fill="none" xmlns="http://www.w3.org/2000/svg">
<g clip-path="url(#clip0_405_3021)">
<path d="M5.00133 1.12207H36.2741C38.1317 1.12207 39.6377 2.62802 39.6377 4.48571V35.7584C39.6377 37.6161 38.1317 39.1221 36.2741 39.1221H5.00133C3.14365 39.1221 1.6377 37.6161 1.6377 35.7584V4.48571C1.6377 2.62802 3.14365 1.12207 5.00133 1.12207Z" fill="#F0082F" stroke="white" stroke-width="2"/>
<path d="M11.5471 15.5765H29.729V30.3492C29.729 30.9768 29.2202 31.4856 28.5926 31.4856H12.6835C12.0559 31.4856 11.5471 30.9768 11.5471 30.3492V15.5765ZM14.9562 12.1674V9.89466C14.9562 9.26706 15.465 8.7583 16.0926 8.7583H25.1835C25.8111 8.7583 26.3199 9.26706 26.3199 9.89466V12.1674H32.0017V14.4401H9.27441V12.1674H14.9562ZM17.229 11.031V12.1674H24.0471V11.031H17.229ZM17.229 20.1219V26.9401H19.5017V20.1219H17.229ZM21.7744 20.1219V26.9401H24.0471V20.1219H21.7744Z" fill="white"/>
</g>
<defs>
<clipPath id="clip0_405_3021">
<rect width="40" height="40" fill="white" transform="translate(0.637695 0.12207)"/>
</clipPath>
</defs>
</svg>
