<svg width="220" height="220" viewBox="0 0 220 220" fill="none" xmlns="http://www.w3.org/2000/svg">
<rect width="220" height="220" rx="24" fill="#F0082F"/>
<path d="M60 85H160V166.25C160 169.702 157.202 172.5 153.75 172.5H66.25C62.7983 172.5 60 169.702 60 166.25V85ZM78.75 66.25V53.75C78.75 50.2982 81.5482 47.5 85 47.5H135C138.452 47.5 141.25 50.2982 141.25 53.75V66.25H172.5V78.75H47.5V66.25H78.75ZM91.25 60V66.25H128.75V60H91.25ZM91.25 110V147.5H103.75V110H91.25ZM116.25 110V147.5H128.75V110H116.25Z" fill="white"/>
</svg>
