<svg width="41" height="40" viewBox="0 0 41 40" fill="none" xmlns="http://www.w3.org/2000/svg">
<g clip-path="url(#clip0_405_3030)">
<path d="M4.85289 0.994629H36.1256C37.9833 0.994629 39.4893 2.50058 39.4893 4.35827V35.631C39.4893 37.4887 37.9833 38.9946 36.1256 38.9946H4.85289C2.99521 38.9946 1.48926 37.4887 1.48926 35.631V4.35827C1.48926 2.50058 2.99521 0.994629 4.85289 0.994629Z" fill="#C4FFBE" stroke="white" stroke-width="2"/>
<path d="M11.9592 10.9979C11.412 11.0925 11.0145 11.2433 10.5168 11.5531C9.99009 11.8934 9.14867 12.7555 8.79082 13.3381C7.41622 15.5552 7.23831 19.1323 8.28229 23.2259C8.65707 24.6794 8.70416 24.7901 8.9416 24.7847C9.1642 24.7796 15.3949 23.8985 15.4239 23.8679C15.4964 23.7918 16.1214 21.5843 16.3028 20.7523C16.706 18.9079 16.7729 18.265 16.7302 16.4011C16.6961 14.91 16.6678 14.6496 16.5059 14.064C16.0205 12.3147 14.7984 11.1417 13.2649 10.9605C12.6769 10.8919 12.5359 10.8952 11.9592 10.9979Z" fill="#1CB20E"/>
<path d="M12.2967 27.0279C10.8757 27.217 9.63943 27.3722 9.56523 27.3739C9.43184 27.3844 9.42563 27.4368 9.48977 28.2932C9.68292 30.8921 10.4498 32.6124 11.799 33.499C12.7034 34.0901 14.0962 34.2893 14.7634 33.9235C15.6063 33.4492 16.2234 32.5175 16.37 31.4624C16.5304 30.3622 16.2984 28.6593 15.7828 27.2166L15.5767 26.647L15.2356 26.6622C15.0428 26.6741 13.725 26.831 12.2967 27.0279Z" fill="#1CB20E"/>
<path d="M24.6868 6.62936C24.0284 6.89343 23.2395 7.59161 22.843 8.25394C21.8841 9.87474 21.7792 13.2984 22.595 16.7054C22.7981 17.5648 23.1993 18.9979 23.3046 19.2008C23.3377 19.2712 24.4108 19.4732 26.523 19.799C28.259 20.0681 29.7564 20.2972 29.8479 20.3061C29.9855 20.3234 30.0362 20.2101 30.2722 19.4284C31.3108 15.926 31.4901 12.6496 30.7564 10.3462C30.0473 8.10705 28.3752 6.5544 26.5128 6.39478C25.9961 6.3512 25.091 6.47109 24.6868 6.62936Z" fill="#1CB20E"/>
<path d="M23.0264 22.3109C22.2811 24.0053 22.0055 26.2331 22.3895 27.45C22.6749 28.3575 23.3935 29.2004 24.0973 29.4422C24.5004 29.5782 25.2916 29.5506 25.8436 29.3778C27.5647 28.8422 28.6098 27.3971 29.0302 24.982C29.1644 24.1702 29.2724 22.9328 29.206 22.8898C29.1891 22.8773 27.862 22.6831 26.2596 22.4546C24.6571 22.226 23.3069 22.0278 23.2533 22.0208C23.206 22.0051 23.0987 22.1417 23.0264 22.3109Z" fill="#1CB20E"/>
</g>
<defs>
<clipPath id="clip0_405_3030">
<rect width="40" height="40" fill="white" transform="translate(0.489258 -0.00537109)"/>
</clipPath>
</defs>
</svg>
