<svg width="220" height="220" viewBox="0 0 220 220" fill="none" xmlns="http://www.w3.org/2000/svg">
<rect width="220" height="220" rx="24" fill="#1CB20E"/>
<path d="M63.0834 60.5178C60.0738 61.038 57.888 61.8675 55.1505 63.5713C52.2535 65.4428 47.6257 70.1847 45.6575 73.3888C38.0972 85.5827 37.1187 105.257 42.8606 127.772C44.9219 135.766 45.1809 136.375 46.4868 136.345C47.7111 136.317 81.9798 131.471 82.1393 131.303C82.538 130.884 85.9756 118.743 86.9732 114.167C89.1908 104.023 89.5589 100.487 89.3242 90.2353C89.1364 82.0344 88.9811 80.602 88.0907 77.3813C85.4205 67.7602 78.699 61.3089 70.265 60.3123C67.0307 59.9351 66.2553 59.9528 63.0834 60.5178Z" fill="white"/>
<path d="M64.9389 148.682C57.1232 149.723 50.3239 150.576 49.9158 150.585C49.1822 150.643 49.148 150.931 49.5008 155.641C50.5631 169.935 54.7812 179.397 62.2017 184.274C67.1758 187.524 74.8363 188.62 78.5059 186.608C83.1417 183.999 86.5358 178.875 87.342 173.072C88.2242 167.021 86.9482 157.655 84.1124 149.72L82.9791 146.587L81.1028 146.671C80.0427 146.736 72.7945 147.599 64.9389 148.682Z" fill="white"/>
<path d="M133.089 36.491C129.468 37.9434 125.129 41.7835 122.948 45.4262C117.674 54.3406 117.097 73.1706 121.584 91.9091C122.701 96.6359 124.908 104.518 125.487 105.634C125.669 106.021 131.571 107.132 143.188 108.924C152.736 110.404 160.972 111.664 161.475 111.713C162.232 111.808 162.511 111.185 163.809 106.886C169.521 87.6223 170.507 69.6021 166.472 56.9337C162.572 44.6183 153.375 36.0787 143.132 35.2008C140.29 34.9611 135.312 35.6205 133.089 36.491Z" fill="white"/>
<path d="M123.952 122.741C119.853 132.06 118.337 144.313 120.449 151.006C122.019 155.997 125.971 160.633 129.842 161.963C132.059 162.711 136.411 162.559 139.447 161.609C148.913 158.663 154.661 150.715 156.973 137.432C157.711 132.967 158.305 126.161 157.94 125.925C157.847 125.856 150.548 124.788 141.735 123.531C132.921 122.274 125.495 121.184 125.2 121.145C124.94 121.059 124.35 121.811 123.952 122.741Z" fill="white"/>
</svg>
